<svg version="1.1" viewBox="0 0 96 96" xmlns="http://www.w3.org/2000/svg" xmlns:xlink="http://www.w3.org/1999/xlink" id="Icons_Network" overflow="hidden"><path d=" M 85 37.4 C 83.3 33.3 78.6 31.4 74.5 33.1 C 71.1 34.5 69.1 38.1 69.6 41.6 L 56.7 47 C 55.3 44.6 52.8 42.8 50 42.3 L 50 28.4 C 53.4 27.5 56 24.4 56 20.7 C 56 16.3 52.4 12.7 48 12.7 L 48 12.7 C 43.6 12.7 40 16.3 40 20.7 C 40 24.4 42.6 27.5 46 28.4 L 46 42.2 C 43.1 42.7 40.7 44.5 39.3 46.9 L 26.4 41.5 C 26.9 38 25 34.4 21.5 33 C 17.4 31.3 12.7 33.2 11 37.3 C 9.3 41.4 11.2 46.1 15.3 47.8 C 18.7 49.2 22.6 48.1 24.7 45.2 L 37.9 50.6 C 37.8 51 37.8 51.5 37.8 51.9 C 37.8 54.1 38.5 56.2 39.8 57.9 L 29.4 68.4 C 26.3 66.6 22.3 67 19.7 69.6 C 16.6 72.7 16.6 77.8 19.7 80.9 C 22.8 84 27.9 84 31 80.9 C 33.6 78.3 34 74.3 32.2 71.2 L 42.8 60.6 C 44.3 61.5 46 62 47.8 62 C 47.9 62 47.9 62 48 62 C 48.1 62 48.1 62 48.2 62 C 50 62 51.7 61.5 53.2 60.6 L 63.8 71.2 C 62 74.3 62.4 78.3 65 81 C 68.1 84.1 73.2 84.1 76.3 81 C 79.4 77.9 79.4 72.8 76.3 69.7 C 73.7 67.1 69.7 66.7 66.6 68.5 L 56.2 58 C 57.5 56.3 58.2 54.3 58.2 52 C 58.2 51.6 58.2 51.1 58.1 50.7 L 71.3 45.3 C 73.4 48.1 77.3 49.3 80.7 47.9 C 84.7 46.1 86.7 41.5 85 37.4 Z"/></svg>