<svg version="1.1" viewBox="0 0 96 96" xmlns="http://www.w3.org/2000/svg" xmlns:xlink="http://www.w3.org/1999/xlink" id="Icons_Link" overflow="hidden"><path d=" M 74.2 74.2 C 70.7 77.7 65 77.7 61.5 74.2 L 53 65.7 C 50.3 63 49.6 58.9 51.3 55.5 L 58.7 62.9 C 59.9 64 61.7 64 62.9 62.8 C 64 61.7 64.1 59.8 63 58.6 L 55.6 51.2 C 59 49.6 63.1 50.3 65.8 53 L 74.3 61.5 C 77.7 65 77.7 70.6 74.2 74.2 Z M 30.3 43 L 21.8 34.5 C 18.3 31 18.3 25.3 21.8 21.8 C 25.3 18.3 31 18.3 34.5 21.8 L 43 30.3 C 45.7 33 46.4 37.1 44.8 40.5 L 38.8 34.5 C 37.6 33.4 35.8 33.4 34.6 34.6 C 33.5 35.7 33.4 37.6 34.5 38.8 L 40.5 44.8 C 37.1 46.4 33 45.7 30.3 43 Z M 78.4 57.2 L 69.9 48.7 C 64.9 43.6 56.9 42.8 51 46.8 L 49.2 45 C 53.1 39.1 52.3 31.2 47.3 26.1 L 38.8 17.6 C 32.9 12.2 23.7 12.4 18 18 C 12.3 23.7 12.1 32.8 17.6 38.8 L 26.1 47.3 C 31.1 52.4 39.1 53.2 45 49.2 L 46.8 51 C 42.9 56.9 43.7 64.8 48.7 69.9 L 57.2 78.4 C 63.1 83.9 72.3 83.7 78 78 C 83.7 72.3 83.9 63.1 78.4 57.2 L 78.4 57.2 Z"/></svg>